<svg width="512" height="512" viewBox="0 0 512 512" fill="none" xmlns="http://www.w3.org/2000/svg">
<path d="M435.2 0H76.8C34.3845 0 0 34.3845 0 76.8V435.2C0 477.615 34.3845 512 76.8 512H435.2C477.615 512 512 477.615 512 435.2V76.8C512 34.3845 477.615 0 435.2 0Z" fill="white"/>
<g clip-path="url(#clip0_4_14)">
<path d="M163.145 221.885C163.145 227.091 163.708 231.313 164.693 234.408C165.82 237.504 167.228 240.881 169.199 244.54C169.903 245.665 170.185 246.791 170.185 247.776C170.185 249.183 169.34 250.59 167.509 251.997L158.639 257.907C157.372 258.751 156.105 259.174 154.979 259.174C153.571 259.174 152.163 258.47 150.755 257.204C148.783 255.093 147.094 252.842 145.686 250.59C144.278 248.198 142.87 245.524 141.321 242.288C130.339 255.234 116.541 261.706 99.9271 261.706C88.1002 261.706 78.6669 258.329 71.7678 251.575C64.8688 244.821 61.3489 235.815 61.3489 224.558C61.3489 212.598 65.5728 202.889 74.1614 195.572C82.75 188.255 94.1545 184.596 108.657 184.596C113.444 184.596 118.371 185.018 123.581 185.722C128.79 186.425 134.141 187.551 139.773 188.818V178.546C139.773 167.852 137.52 160.394 133.155 156.032C128.65 151.67 121.047 149.559 110.205 149.559C105.277 149.559 100.209 150.122 94.9993 151.388C89.7898 152.655 84.7211 154.202 79.7932 156.172C77.5405 157.157 75.8509 157.72 74.8654 158.002C73.8798 158.283 73.1758 158.424 72.6126 158.424C70.6415 158.424 69.6559 157.017 69.6559 154.062V147.167C69.6559 144.915 69.9375 143.227 70.6415 142.242C71.3455 141.257 72.6126 140.272 74.5838 139.287C79.5117 136.754 85.4251 134.643 92.3241 132.955C99.2231 131.126 106.545 130.281 114.288 130.281C131.043 130.281 143.292 134.081 151.177 141.679C158.921 149.278 162.863 160.816 162.863 176.294V221.885H163.145ZM105.981 243.273C110.628 243.273 115.415 242.429 120.483 240.74C125.552 239.052 130.058 235.956 133.859 231.735C136.112 229.061 137.801 226.106 138.646 222.729C139.491 219.352 140.054 215.271 140.054 210.487V204.577C135.971 203.592 131.606 202.748 127.101 202.185C122.595 201.622 118.231 201.341 113.866 201.341C104.433 201.341 97.5336 203.17 92.8873 206.969C88.241 210.769 85.9883 216.116 85.9883 223.151C85.9883 229.765 87.6778 234.69 91.1978 238.067C94.5769 241.585 99.5047 243.273 105.981 243.273ZM219.041 258.47C216.507 258.47 214.817 258.048 213.691 257.063C212.564 256.219 211.579 254.249 210.734 251.575L177.647 142.805C176.802 139.991 176.38 138.161 176.38 137.176C176.38 134.925 177.506 133.659 179.759 133.659H193.557C196.232 133.659 198.062 134.081 199.048 135.066C200.174 135.91 201.019 137.88 201.864 140.553L225.518 233.705L247.482 140.553C248.186 137.739 249.031 135.91 250.157 135.066C251.283 134.221 253.254 133.659 255.789 133.659H267.052C269.728 133.659 271.558 134.081 272.684 135.066C273.811 135.91 274.796 137.88 275.359 140.553L297.605 234.83L321.963 140.553C322.808 137.739 323.793 135.91 324.779 135.066C325.905 134.221 327.736 133.659 330.27 133.659H343.364C345.617 133.659 346.884 134.784 346.884 137.176C346.884 137.88 346.743 138.583 346.602 139.428C346.462 140.272 346.18 141.398 345.617 142.945L311.685 251.716C310.84 254.53 309.855 256.359 308.728 257.204C307.602 258.048 305.772 258.611 303.378 258.611H291.269C288.594 258.611 286.764 258.189 285.638 257.204C284.511 256.219 283.526 254.389 282.962 251.575L261.139 160.816L239.456 251.434C238.752 254.249 237.908 256.078 236.781 257.063C235.655 258.048 233.684 258.47 231.149 258.47H219.041ZM399.964 262.269C392.643 262.269 385.321 261.425 378.282 259.736C371.242 258.048 365.751 256.219 362.09 254.108C359.837 252.842 358.289 251.434 357.725 250.168C357.162 248.902 356.881 247.494 356.881 246.228V239.052C356.881 236.097 358.007 234.69 360.119 234.69C360.964 234.69 361.809 234.83 362.653 235.112C363.498 235.393 364.765 235.956 366.173 236.519C370.96 238.63 376.17 240.318 381.661 241.444C387.293 242.57 392.784 243.132 398.416 243.132C407.286 243.132 414.185 241.585 418.972 238.489C423.759 235.393 426.293 230.89 426.293 225.121C426.293 221.181 425.026 217.945 422.492 215.271C419.957 212.598 415.17 210.206 408.271 207.954L387.856 201.622C377.578 198.386 369.975 193.602 365.328 187.27C360.682 181.078 358.289 174.184 358.289 166.867C358.289 160.957 359.556 155.75 362.09 151.247C364.624 146.745 368.004 142.805 372.227 139.709C376.451 136.473 381.238 134.081 386.87 132.392C392.502 130.704 398.416 130 404.611 130C407.708 130 410.946 130.141 414.044 130.563C417.282 130.985 420.239 131.548 423.196 132.111C426.012 132.814 428.687 133.518 431.221 134.362C433.755 135.206 435.727 136.051 437.135 136.895C439.106 138.021 440.514 139.146 441.358 140.413C442.203 141.538 442.626 143.086 442.626 145.056V151.67C442.626 154.625 441.499 156.172 439.387 156.172C438.261 156.172 436.431 155.61 434.037 154.484C426.012 150.825 417.001 148.996 407.004 148.996C398.979 148.996 392.643 150.263 388.278 152.936C383.914 155.61 381.661 159.69 381.661 165.459C381.661 169.399 383.069 172.776 385.885 175.45C388.701 178.123 393.91 180.797 401.372 183.189L421.365 189.521C431.503 192.758 438.824 197.26 443.189 203.029C447.554 208.799 449.665 215.412 449.665 222.729C449.665 228.78 448.398 234.268 446.005 239.052C443.47 243.836 440.091 248.057 435.727 251.434C431.362 254.952 426.152 257.485 420.098 259.314C413.762 261.284 407.145 262.269 399.964 262.269Z" fill="#252F3E"/>
<path fill-rule="evenodd" clip-rule="evenodd" d="M426.575 330.655C380.253 364.848 312.952 383 255.085 383C173.986 383 100.913 353.028 45.7205 303.216C41.3558 299.276 45.2981 293.929 50.5076 297.025C110.205 331.64 183.842 352.606 260.013 352.606C311.403 352.606 367.863 341.912 419.817 319.961C427.56 316.443 434.178 325.027 426.575 330.655Z" fill="#FF9900"/>
<path fill-rule="evenodd" clip-rule="evenodd" d="M445.864 308.704C439.951 301.106 406.723 305.046 391.657 306.875C387.152 307.438 386.448 303.498 390.531 300.543C417.001 281.969 460.507 287.316 465.576 293.507C470.644 299.839 464.168 343.319 439.387 364.145C435.586 367.381 431.925 365.692 433.615 361.471C439.247 347.541 451.777 316.162 445.864 308.704Z" fill="#FF9900"/>
</g>
<defs>
<clipPath id="clip0_4_14">
<rect width="432" height="253" fill="white" transform="translate(40 130)"/>
</clipPath>
</defs>
</svg>
